# xmcd
#
# Track frame offsets:
#	150
#	14969
#	28631
#	41406
#	55681
#	68342
#	82316
#	96947
#	109689
#	123412
#	136497
#	149934
#	163456
#	178634
#	189995
#	203815
#	217503
#	231219
#	244664
#	258009
#	271287
#	284362
#	297594
#
# Disc length: 4157 seconds
# Revision: 0
# Processed by: cddbd v1.5.2PL0 Copyright (c) Steve Scherf et al.
# Submitted via: dBpowerAMP V12.0
#
DISCID=5e103b17
DTITLE=Various Artist - Times Ain't Like They Used To Be, Vol. 5: Early American Rural Music
DYEAR=2002
DGENRE=Country
TTITLE0=Sam McGee - Railroad Blues
TTITLE1=Floyd County Ramblers - Step Stone
TTITLE2=Skip James - Hard Time Killin' Floor Blues
TTITLE3=Weems String Band - Greenback Dollar
TTITLE4=Jimmie Davis - Doggone That Train
TTITLE5=Eli Framer - Framer's Blues
TTITLE6=Roy Harvey and Jess Johnston - No Room For a Tramp
TTITLE7=Garland Brothers and Grinstead - Just Over The River
TTITLE8=Ben Covington - Mule Skinner Moan
TTITLE9=Reaves White County Ramblers - Shortening Bread
TTITLE10=J.P. Nestor and Norman Edmonds - Black-Eyed Susie
TTITLE11=Buddy Boy Hawkins - A Rag Blues
TTITLE12=Roy Harvey and Jess Johnston - Railroad Blues
TTITLE13=Grayson County Railsplitters - Way Down in North Carolina
TTITLE14=The Swamp Rooters - Citaco
TTITLE15=Unknown - Pistol Blues
TTITLE16=Murphy Brothers Harp Band - Boat Song March
TTITLE17=Frank Blevins and His Tar Heel Rattlers - I've Got No Honey Babe Now
TTITLE18=Wilmer Watts and the Lonely Eagles - Bonnie Bess
TTITLE19=Blind Joe Reynolds - Cold Woman Blues
TTITLE20=Wyzee, Tucker and LeCroy - Hamilton's Special Breakdown
TTITLE21=Bull Mountain Moonshiners - Johnny Goodwin
TTITLE22=Charley Patton - Some Happy Day
EXTD=
EXTT0=
EXTT1=
EXTT2=
EXTT3=
EXTT4=
EXTT5=
EXTT6=
EXTT7=
EXTT8=
EXTT9=
EXTT10=
EXTT11=
EXTT12=
EXTT13=
EXTT14=
EXTT15=
EXTT16=
EXTT17=
EXTT18=
EXTT19=
EXTT20=
EXTT21=
EXTT22=
PLAYORDER=
